<?xml version="1.0" standalone="no"?>
<!DOCTYPE svg PUBLIC "-//W3C//DTD SVG 20010904//EN"
 "http://www.w3.org/TR/2001/REC-SVG-20010904/DTD/svg10.dtd">
<svg version="1.0" xmlns="http://www.w3.org/2000/svg"
 width="757.000000pt" height="757.000000pt" viewBox="0 0 757.000000 757.000000"
 preserveAspectRatio="xMidYMid meet">
<metadata>
Created by potrace 1.11, written by Peter Selinger 2001-2013
</metadata>
<g transform="translate(0.000000,757.000000) scale(0.100000,-0.100000)"
fill="#000000" stroke="none">
<path d="M5925 7544 c-72 -39 -268 -174 -295 -204 -3 -3 -34 -30 -70 -60 -124
-104 -454 -427 -614 -600 -38 -41 -90 -97 -115 -125 -26 -27 -76 -84 -111
-125 -36 -41 -72 -82 -80 -90 -8 -8 -40 -44 -69 -80 -30 -36 -61 -72 -70 -80
-9 -9 -45 -51 -81 -95 -35 -44 -67 -82 -70 -85 -5 -5 -151 -182 -227 -276
-257 -319 -621 -793 -859 -1119 -71 -96 -469 -657 -506 -711 -26 -38 -77 -112
-113 -164 -62 -89 -568 -847 -647 -970 -19 -30 -83 -131 -143 -225 -59 -93
-118 -186 -130 -205 -35 -53 -78 -123 -91 -145 -6 -11 -84 -139 -174 -285
-166 -272 -302 -497 -309 -515 -2 -5 -21 -38 -42 -71 -39 -64 -242 -416 -298
-518 -48 -85 -90 -159 -101 -176 -6 -8 -13 -22 -17 -30 -3 -8 -34 -64 -68
-125 -34 -60 -82 -148 -107 -195 -25 -47 -68 -127 -96 -178 l-50 -92 923 0
924 0 119 238 c214 426 470 920 572 1107 15 28 48 88 73 135 58 109 158 295
184 340 11 20 39 71 62 114 23 43 51 92 61 109 10 18 39 68 63 112 419 757
1006 1705 1450 2345 36 52 92 133 124 179 32 46 83 118 114 160 152 209 254
346 259 351 3 3 41 52 85 110 108 142 360 459 439 551 17 19 40 46 51 60 54
64 199 229 202 229 2 0 -31 -42 -72 -92 -72 -88 -416 -544 -498 -659 -21 -30
-74 -106 -119 -169 -45 -63 -150 -218 -235 -345 -84 -126 -156 -235 -161 -241
-4 -5 -13 -19 -19 -30 -7 -10 -45 -68 -84 -129 -39 -60 -101 -158 -137 -216
-147 -232 -306 -491 -311 -503 -2 -6 -16 -29 -31 -51 -48 -71 -520 -880 -520
-891 0 -2 -11 -21 -24 -42 -34 -54 -355 -639 -476 -867 -29 -55 -65 -122 -80
-150 -15 -27 -54 -102 -87 -165 -34 -63 -87 -164 -118 -225 -69 -130 -557
-1103 -632 -1258 l-52 -107 1568 0 1568 0 23 58 c117 299 204 557 226 667 2
11 10 48 17 82 9 41 10 60 3 56 -6 -4 -29 -19 -52 -34 -58 -39 -202 -110 -313
-153 -142 -56 -402 -137 -491 -152 -14 -3 -42 -9 -63 -15 -21 -6 -50 -12 -65
-14 -15 -2 -49 -8 -77 -14 -27 -5 -51 -8 -52 -7 -2 1 34 20 79 42 130 62 296
153 388 212 76 49 217 148 230 162 3 3 21 18 40 34 110 89 281 271 386 411 74
99 299 439 377 570 7 11 26 42 43 70 37 58 187 315 231 395 73 132 94 171 153
280 62 116 330 653 330 663 0 2 20 47 44 98 164 351 340 830 411 1121 35 144
78 354 90 438 4 24 8 47 10 50 1 3 6 36 10 73 3 37 8 78 10 89 14 70 20 216
20 463 0 276 -5 372 -26 490 -6 33 -13 72 -15 88 -6 49 -54 240 -80 322 -103
315 -292 592 -565 824 -86 73 -105 87 -207 146 l-86 50 -306 3 -305 2 -50 -26z"/>
</g>
</svg>
