<svg version="1" xmlns="http://www.w3.org/2000/svg" width="1009.333" height="1009.333" viewBox="0 0 757.000000 757.000000"><path d="M592.5 2.6C585.3 6.5 565.7 20 563 23c-.3.3-3.4 3-7 6-12.4 10.4-45.4 42.7-61.4 60-3.8 4.1-9 9.7-11.5 12.5-2.6 2.7-7.6 8.4-11.1 12.5-3.6 4.1-7.2 8.2-8 9-.8.8-4 4.4-6.9 8-3 3.6-6.1 7.2-7 8-.9.9-4.5 5.1-8.1 9.5-3.5 4.4-6.7 8.2-7 8.5-.5.5-15.1 18.2-22.7 27.6-25.7 31.9-62.1 79.3-85.9 111.9-7.1 9.6-46.9 65.7-50.6 71.1-2.6 3.8-7.7 11.2-11.3 16.4-6.2 8.9-56.8 84.7-64.7 97-1.9 3-8.3 13.1-14.3 22.5-5.9 9.3-11.8 18.6-13 20.5-3.5 5.3-7.8 12.3-9.1 14.5-.6 1.1-8.4 13.9-17.4 28.5-16.6 27.2-30.2 49.7-30.9 51.5-.2.5-2.1 3.8-4.2 7.1-3.9 6.4-24.2 41.6-29.8 51.8-4.8 8.5-9 15.9-10.1 17.6-.6.8-1.3 2.2-1.7 3-.3.8-3.4 6.4-6.8 12.5-3.4 6-8.2 14.8-10.7 19.5-2.5 4.7-6.8 12.7-9.6 17.8l-5 9.2h184.7l11.9-23.8c21.4-42.6 47-92 57.2-110.7 1.5-2.8 4.8-8.8 7.3-13.5 5.8-10.9 15.8-29.5 18.4-34 1.1-2 3.9-7.1 6.2-11.4 2.3-4.3 5.1-9.2 6.1-10.9 1-1.8 3.9-6.8 6.3-11.2 41.9-75.7 100.6-170.5 145-234.5 3.6-5.2 9.2-13.3 12.4-17.9 3.2-4.6 8.3-11.8 11.4-16 15.2-20.9 25.4-34.6 25.9-35.1.3-.3 4.1-5.2 8.5-11 10.8-14.2 36-45.9 43.9-55.1 1.7-1.9 4-4.6 5.1-6 5.4-6.4 19.9-22.9 20.2-22.9.2 0-3.1 4.2-7.2 9.2-7.2 8.8-41.6 54.4-49.8 65.9-2.1 3-7.4 10.6-11.9 16.9-4.5 6.3-15 21.8-23.5 34.5-8.4 12.6-15.6 23.5-16.1 24.1-.4.5-1.3 1.9-1.9 3-.7 1-4.5 6.8-8.4 12.9-3.9 6-10.1 15.8-13.7 21.6-14.7 23.2-30.6 49.1-31.1 50.3-.2.6-1.6 2.9-3.1 5.1-4.8 7.1-52 88-52 89.1 0 .2-1.1 2.1-2.4 4.2-3.4 5.4-35.5 63.9-47.6 86.7-2.9 5.5-6.5 12.2-8 15-1.5 2.7-5.4 10.2-8.7 16.5-3.4 6.3-8.7 16.4-11.8 22.5-6.9 13-55.7 110.3-63.2 125.8l-5.2 10.7h313.6l2.3-5.8c11.7-29.9 20.4-55.7 22.6-66.7.2-1.1 1-4.8 1.7-8.2.9-4.1 1-6 .3-5.6-.6.4-2.9 1.9-5.2 3.4-5.8 3.9-20.2 11-31.3 15.3-14.2 5.6-40.2 13.7-49.1 15.2-1.4.3-4.2.9-6.3 1.5-2.1.6-5 1.2-6.5 1.4-1.5.2-4.9.8-7.7 1.4-2.7.5-5.1.8-5.2.7-.2-.1 3.4-2 7.9-4.2 13-6.2 29.6-15.3 38.8-21.2 7.6-4.9 21.7-14.8 23-16.2.3-.3 2.1-1.8 4-3.4 11-8.9 28.1-27.1 38.6-41.1 7.4-9.9 29.9-43.9 37.7-57 .7-1.1 2.6-4.2 4.3-7 3.7-5.8 18.7-31.5 23.1-39.5 7.3-13.2 9.4-17.1 15.3-28 6.2-11.6 33-65.3 33-66.3 0-.2 2-4.7 4.4-9.8 16.4-35.1 34-83 41.1-112.1 3.5-14.4 7.8-35.4 9-43.8.4-2.4.8-4.7 1-5 .1-.3.6-3.6 1-7.3.3-3.7.8-7.8 1-8.9 1.4-7 2-21.6 2-46.3 0-27.6-.5-37.2-2.6-49-.6-3.3-1.3-7.2-1.5-8.8-.6-4.9-5.4-24-8-32.2-10.3-31.5-29.2-59.2-56.5-82.4-8.6-7.3-10.5-8.7-20.7-14.6l-8.6-5L628 .2 597.5 0l-5 2.6z"/></svg>